<svg width="40" height="40" viewBox="0 0 40 40" fill="none" xmlns="http://www.w3.org/2000/svg">
<path d="M40 7.49997V32.5C40 33.9187 38.9188 35 37.5 35H35V12.3112L20 23.0862L5 12.3112V35H2.5C1.08125 35 0 33.9187 0 32.5V7.49997C0 6.78997 0.2675 6.16497 0.71625 5.72247C0.949838 5.48846 1.22816 5.30388 1.53462 5.17975C1.84108 5.05562 2.1694 4.99448 2.5 4.99997H3.33375L20 17.0837L36.6663 4.99997H37.5C38.21 4.99997 38.835 5.26747 39.2837 5.72247C39.7325 6.16497 40 6.78997 40 7.49997Z" fill="black"/>
</svg>
