<svg width="61" height="61" viewBox="0 0 61 61" fill="none" xmlns="http://www.w3.org/2000/svg">
<path d="M27.6406 41.9375C27.6406 42.4431 27.4398 42.9279 27.0823 43.2854C26.7248 43.6429 26.2399 43.8438 25.7344 43.8438H19.0625C18.5569 43.8438 18.0721 43.6429 17.7146 43.2854C17.3571 42.9279 17.1562 42.4431 17.1562 41.9375C17.1562 41.4319 17.3571 40.9471 17.7146 40.5896C18.0721 40.2321 18.5569 40.0312 19.0625 40.0312H25.7344C26.2399 40.0312 26.7248 40.2321 27.0823 40.5896C27.4398 40.9471 27.6406 41.4319 27.6406 41.9375ZM41.9375 40.0312H35.2656C34.7601 40.0312 34.2752 40.2321 33.9177 40.5896C33.5602 40.9471 33.3594 41.4319 33.3594 41.9375C33.3594 42.4431 33.5602 42.9279 33.9177 43.2854C34.2752 43.6429 34.7601 43.8438 35.2656 43.8438H41.9375C42.4431 43.8438 42.9279 43.6429 43.2854 43.2854C43.6429 42.9279 43.8438 42.4431 43.8438 41.9375C43.8438 41.4319 43.6429 40.9471 43.2854 40.5896C42.9279 40.2321 42.4431 40.0312 41.9375 40.0312ZM57.1875 51.4688C57.1875 51.9743 56.9867 52.4592 56.6292 52.8167C56.2717 53.1742 55.7868 53.375 55.2812 53.375H5.71875C5.21318 53.375 4.72832 53.1742 4.37083 52.8167C4.01334 52.4592 3.8125 51.9743 3.8125 51.4688C3.8125 50.9632 4.01334 50.4783 4.37083 50.1208C4.72832 49.7633 5.21318 49.5625 5.71875 49.5625H7.625V20.9688C7.625 20.6147 7.72358 20.2677 7.9097 19.9666C8.09581 19.6654 8.36211 19.4221 8.67875 19.2637C8.99539 19.1054 9.34986 19.0384 9.70244 19.0702C10.055 19.102 10.3918 19.2313 10.675 19.4437L22.875 28.5938V20.9688C22.875 20.6147 22.9736 20.2677 23.1597 19.9666C23.3458 19.6654 23.6121 19.4221 23.9287 19.2637C24.2454 19.1054 24.5999 19.0384 24.9524 19.0702C25.305 19.102 25.6418 19.2313 25.925 19.4437L35.156 26.3658L37.9105 7.08648C38.0439 6.17948 38.4981 5.35036 39.1907 4.74964C39.8832 4.14893 40.7682 3.81643 41.6849 3.8125H46.0026C46.9193 3.81643 47.8043 4.14893 48.4968 4.74964C49.1894 5.35036 49.6436 6.17948 49.777 7.08648L53.3512 32.137C53.3512 32.137 53.3702 32.3229 53.3702 32.4062V49.5625H55.2765C55.5272 49.5619 55.7756 49.6107 56.0074 49.7062C56.2393 49.8018 56.45 49.9421 56.6275 50.1191C56.805 50.2962 56.9458 50.5066 57.0419 50.7382C57.138 50.9697 57.1875 51.218 57.1875 51.4688ZM38.6349 28.975L40.6675 30.5H49.2718L46.0026 7.625H41.6849L38.6349 28.975ZM11.4375 49.5625H49.5625V34.3125H40.0312C39.6188 34.3125 39.2175 34.1787 38.8875 33.9312L35.4563 31.3578L26.6875 24.7812V32.4062C26.6875 32.7603 26.5889 33.1073 26.4028 33.4084C26.2167 33.7096 25.9504 33.9529 25.6338 34.1112C25.3171 34.2696 24.9626 34.3366 24.6101 34.3048C24.2575 34.273 23.9207 34.1437 23.6375 33.9312L11.4375 24.7812V49.5625Z" fill="black" fill-opacity="0.5"/>
</svg>
