<svg width="39" height="39" viewBox="0 0 39 39" fill="none" xmlns="http://www.w3.org/2000/svg">
<path d="M33.0362 28.6926C33.215 28.0979 33.3125 27.4658 33.3125 26.8125V12.1875C33.3125 10.4636 32.6277 8.81029 31.4087 7.59131C30.1897 6.37232 28.5364 5.6875 26.8125 5.6875H12.1875C10.4636 5.6875 8.81029 6.37232 7.59131 7.59131C6.37232 8.81029 5.6875 10.4636 5.6875 12.1875V26.9262C5.71733 28.6304 6.41529 30.2546 7.63106 31.4491C8.84683 32.6436 10.4831 33.3128 12.1875 33.3125H26.8125L27.0026 33.3092M33.0362 28.6926L32.8933 28.5236L28.886 23.6876C28.5819 23.3208 28.201 23.0253 27.77 22.8221C27.3391 22.6188 26.8687 22.5128 26.3922 22.5116C25.9158 22.5104 25.4449 22.6139 25.0129 22.8149C24.5809 23.0159 24.1983 23.3094 23.8924 23.6746L21.7604 26.2194L21.4126 26.6435M33.0362 28.6926C32.6421 29.998 31.8473 31.1447 30.7645 31.9735C29.6817 32.8024 28.3657 33.2696 27.0026 33.3092M21.4126 26.6435L26.8515 33.137L27.0026 33.3092M21.4126 26.6435L16.1687 20.3824C15.8637 20.0183 15.4826 19.7255 15.0522 19.5247C14.6218 19.3238 14.1526 19.2197 13.6776 19.2197C13.2027 19.2197 12.7335 19.3238 12.3031 19.5247C11.8727 19.7255 11.4915 20.0183 11.1865 20.3824L5.97675 26.6013L5.68912 26.9279" stroke="white" stroke-width="1.5" stroke-linecap="round" stroke-linejoin="round"/>
<path d="M24.5229 16.9146C25.8691 16.9146 26.9604 15.8233 26.9604 14.4771C26.9604 13.1309 25.8691 12.0396 24.5229 12.0396C23.1768 12.0396 22.0854 13.1309 22.0854 14.4771C22.0854 15.8233 23.1768 16.9146 24.5229 16.9146Z" fill="white"/>
</svg>
