<svg width="33" height="33" viewBox="0 0 33 33" fill="none" xmlns="http://www.w3.org/2000/svg">
<path d="M27.9537 24.2784C28.105 23.7751 28.1875 23.2403 28.1875 22.6875V10.3125C28.1875 8.85381 27.608 7.45486 26.5766 6.42341C25.5451 5.39196 24.1462 4.8125 22.6875 4.8125H10.3125C8.85381 4.8125 7.45486 5.39196 6.42341 6.42341C5.39196 7.45486 4.8125 8.85381 4.8125 10.3125V22.7837C4.83774 24.2257 5.42832 25.6 6.45705 26.6108C7.48578 27.6215 8.87033 28.1877 10.3125 28.1875H22.6875L22.8484 28.1847M27.9537 24.2784L27.8328 24.1354L24.442 20.0434C24.1847 19.733 23.8623 19.4829 23.4977 19.311C23.133 19.139 22.735 19.0493 22.3319 19.0483C21.9287 19.0472 21.5303 19.1348 21.1647 19.3049C20.7992 19.475 20.4755 19.7233 20.2166 20.0324L18.4126 22.1856L18.1184 22.5445M27.9537 24.2784C27.6202 25.3829 26.9477 26.3532 26.0315 27.0545C25.1153 27.7558 24.0017 28.1512 22.8484 28.1847M18.1184 22.5445L22.7205 28.039L22.8484 28.1847M18.1184 22.5445L13.6812 17.2466C13.4231 16.9386 13.1006 16.6908 12.7365 16.5209C12.3723 16.3509 11.9753 16.2628 11.5734 16.2628C11.1715 16.2628 10.7745 16.3509 10.4103 16.5209C10.0461 16.6908 9.72361 16.9386 9.4655 17.2466L5.05725 22.5088L4.81387 22.7851" stroke="black" stroke-width="1.5" stroke-linecap="round" stroke-linejoin="round"/>
<path d="M20.7502 14.3124C21.8893 14.3124 22.8127 13.389 22.8127 12.2499C22.8127 11.1108 21.8893 10.1874 20.7502 10.1874C19.6112 10.1874 18.6877 11.1108 18.6877 12.2499C18.6877 13.389 19.6112 14.3124 20.7502 14.3124Z" fill="black"/>
</svg>
