<svg width="49" height="49" viewBox="0 0 49 49" fill="none" xmlns="http://www.w3.org/2000/svg">
<path d="M33.9511 28.3608L34.8821 27.4359L32.7199 25.2636L31.793 26.1885L33.9511 28.3608ZM38.0038 27.048L41.9054 29.1693L43.3652 26.4784L39.4656 24.3591L38.0038 27.048ZM42.6547 33.3833L39.7555 36.2682L41.9136 38.4385L44.8127 35.5556L42.6547 33.3833ZM37.9874 37.1951C35.027 37.4728 27.3708 37.2257 19.0775 28.9815L16.9174 31.1518C25.9661 40.1494 34.5799 40.5904 38.2733 40.2453L37.9874 37.1951ZM19.0775 28.9815C11.1742 21.121 9.86348 14.5122 9.70015 11.6436L6.64173 11.8172C6.8459 15.4268 8.46903 22.7523 16.9174 31.1518L19.0775 28.9815ZM21.8848 16.364L22.4708 15.78L20.3148 13.6097L19.7288 14.1916L21.8848 16.364ZM22.9363 8.35858L20.3638 4.92042L17.9117 6.75792L20.4842 10.194L22.9363 8.35858ZM11.7051 4.17112L8.49965 7.35612L10.6597 9.52846L13.8631 6.34346L11.7051 4.17112ZM20.8068 15.2778C19.7247 14.1916 19.7247 14.1916 19.7247 14.1957H19.7207L19.7145 14.2039C19.6175 14.3017 19.5306 14.4091 19.4552 14.5244C19.345 14.6877 19.2245 14.9021 19.1224 15.1737C18.8739 15.8746 18.812 16.6282 18.9428 17.3603C19.2164 19.1263 20.4332 21.46 23.5488 24.5592L25.7089 22.3869C22.7913 19.4877 22.0972 17.7237 21.9685 16.8907C21.9073 16.4946 21.9706 16.2986 21.9889 16.2537C22.0012 16.2265 22.0012 16.2224 21.9889 16.2415C21.9707 16.2696 21.9503 16.2963 21.9277 16.3211L21.9073 16.3415L21.8869 16.3599L20.8068 15.2778ZM23.5488 24.5592C26.6664 27.6585 29.0123 28.8671 30.7804 29.1366C31.6848 29.2755 32.4137 29.1652 32.967 28.959C33.2769 28.8456 33.5665 28.6829 33.8245 28.4772L33.9266 28.3853L33.9409 28.373L33.947 28.3669L33.949 28.3628C33.949 28.3628 33.9511 28.3608 32.871 27.2746C31.7889 26.1885 31.7951 26.1864 31.7951 26.1864L31.7992 26.1823L31.8032 26.1782L31.8155 26.168L31.8359 26.1476L31.9135 26.0864C31.9325 26.0741 31.9278 26.0755 31.8992 26.0905C31.8482 26.1088 31.6481 26.1721 31.2459 26.1109C30.4006 25.9802 28.6244 25.286 25.7089 22.3869L23.5488 24.5592ZM20.3638 4.91837C18.2813 2.14171 14.1898 1.70071 11.7051 4.17112L13.8631 6.34346C14.9493 5.26342 16.8766 5.37571 17.9117 6.75792L20.3638 4.91837ZM9.70219 11.6457C9.66136 10.9392 9.98598 10.2002 10.6597 9.5305L8.49761 7.35817C7.40123 8.44842 6.53761 9.99192 6.64173 11.8172L9.70219 11.6457ZM39.7555 36.2682C39.1961 36.8276 38.5918 37.142 37.9895 37.1971L38.2733 40.2453C39.7739 40.1045 41.0009 39.349 41.9156 38.4405L39.7555 36.2682ZM22.4708 15.78C24.4818 13.7812 24.6309 10.6228 22.9383 8.36062L20.4863 10.1961C21.3091 11.2965 21.1866 12.74 20.3127 13.6118L22.4708 15.78ZM41.9074 29.1713C43.5755 30.0778 43.8348 32.2134 42.6567 33.3853L44.8168 35.5556C47.5527 32.8341 46.7094 28.2955 43.3672 26.4804L41.9074 29.1713ZM34.8821 27.438C35.6661 26.658 36.9278 26.4661 38.0058 27.05L39.4677 24.3612C37.2545 23.1566 34.5105 23.4894 32.722 25.2656L34.8821 27.438Z" fill="black"/>
</svg>
