<svg width="41" height="41" viewBox="0 0 41 41" fill="none" xmlns="http://www.w3.org/2000/svg">
<path d="M25.625 17.0833L33.403 13.1952C33.6634 13.0651 33.9527 13.0036 34.2435 13.0167C34.5343 13.0298 34.8169 13.117 35.0646 13.27C35.3122 13.423 35.5166 13.6367 35.6585 13.8909C35.8003 14.1451 35.8748 14.4313 35.875 14.7224V26.2776C35.8748 26.5687 35.8003 26.8549 35.6585 27.1091C35.5166 27.3633 35.3122 27.577 35.0646 27.73C34.8169 27.883 34.5343 27.9702 34.2435 27.9833C33.9527 27.9964 33.6634 27.9349 33.403 27.8048L25.625 23.9167V17.0833ZM5.125 13.6667C5.125 12.7605 5.48497 11.8915 6.12572 11.2507C6.76647 10.61 7.63551 10.25 8.54167 10.25H22.2083C23.1145 10.25 23.9835 10.61 24.6243 11.2507C25.265 11.8915 25.625 12.7605 25.625 13.6667V27.3333C25.625 28.2395 25.265 29.1085 24.6243 29.7493C23.9835 30.39 23.1145 30.75 22.2083 30.75H8.54167C7.63551 30.75 6.76647 30.39 6.12572 29.7493C5.48497 29.1085 5.125 28.2395 5.125 27.3333V13.6667Z" stroke="black" stroke-width="2" stroke-linecap="round" stroke-linejoin="round"/>
</svg>
