<svg width="52" height="52" viewBox="0 0 52 52" fill="none" xmlns="http://www.w3.org/2000/svg">
<path d="M25.9998 45.5C28.5606 45.5 31.0963 44.9956 33.4622 44.0157C35.828 43.0357 37.9777 41.5993 39.7884 39.7886C41.5992 37.9779 43.0355 35.8282 44.0155 33.4623C44.9955 31.0965 45.4998 28.5608 45.4998 26C45.4998 23.4392 44.9955 20.9035 44.0155 18.5377C43.0355 16.1718 41.5992 14.0222 39.7884 12.2114C37.9777 10.4007 35.828 8.96434 33.4622 7.98437C31.0963 7.0044 28.5606 6.50002 25.9998 6.50002C20.8281 6.50002 15.8682 8.55448 12.2113 12.2114C8.5543 15.8684 6.49984 20.8283 6.49984 26C6.49984 31.1717 8.5543 36.1316 12.2113 39.7886C15.8682 43.4456 20.8281 45.5 25.9998 45.5ZM49.8332 26C49.8332 39.1625 39.1623 49.8334 25.9998 49.8334C12.8373 49.8334 2.1665 39.1625 2.1665 26C2.1665 12.8375 12.8373 2.16669 25.9998 2.16669C39.1623 2.16669 49.8332 12.8375 49.8332 26ZM32.4998 35.5637L23.8332 26.897V11.9167H28.1665V25.103L35.5635 32.5L32.4998 35.5637Z" fill="black"/>
</svg>
